<svg width="47" height="47" viewBox="0 0 47 47" fill="none" xmlns="http://www.w3.org/2000/svg">
    <path d="M19.3903 12.2255C20.0408 11.7187 20.7232 11.3926 21.6007 11.1693C23.2965 10.7378 25.2608 11.1468 26.635 12.2175C28.3911 13.5856 29.2183 15.7654 28.7681 17.8388C28.1021 20.9077 24.9512 22.9107 21.7975 22.2701C20.1472 21.9348 18.5276 20.7125 17.7865 19.2428C16.533 16.757 17.1741 13.9521 19.3903 12.2255Z" fill="#49537a"/>
    <path d="M21.1196 24.8682L22.0235 24.7391C22.5118 24.6696 23.5539 24.6882 24.3284 24.7804C27.1985 25.1218 29.9261 26.5104 32.3908 28.8848C33.1307 29.5978 33.3802 29.9059 33.6563 30.4481C33.9916 31.1069 34 31.1469 34 32.0931C34 33.032 33.9892 33.0847 33.6624 33.7492C33.1139 34.8643 32.1359 35.6466 30.9619 35.9093C30.4219 36.0302 15.6139 36.0302 15.074 35.9094C13.9127 35.6495 12.9142 34.8516 12.3776 33.7545C12.0922 33.1711 12.039 32.9646 12.007 32.3137C11.9619 31.3985 12.1324 30.7277 12.5776 30.0683C13.1612 29.204 14.9991 27.5861 16.4237 26.6825C17.7454 25.8442 19.7738 25.0606 21.1196 24.8682Z" fill="#49537a"/>
</svg>
